<svg xmlns="http://www.w3.org/2000/svg" width="98" height="97.993" viewBox="0 0 98 97.993">
  <defs>
    <style>
      .cls-1 {
        fill: #fff;
      }
    </style>
  </defs>
  <g id="icons8-octahedron" transform="translate(-6.962 -6.97)">
    <path id="路径_10" data-name="路径 10" class="cls-1" d="M55.984,104.967a2.473,2.473,0,0,1-1.8-.773L7.773,57.788a2.492,2.492,0,0,1,0-3.609L54.179,7.773a2.492,2.492,0,0,1,3.609,0l46.405,46.405a2.492,2.492,0,0,1,0,3.609L57.788,104.194A2.473,2.473,0,0,1,55.984,104.967Zm-42.8-48.984,42.8,42.8,42.8-42.8-42.8-42.8Z" transform="translate(-0.005 -0.004)"/>
    <path id="路径_11" data-name="路径 11" class="cls-1" d="M41.369,75.6a2.379,2.379,0,0,1-.773-.086L8.8,66.064a2.556,2.556,0,1,1,1.461-4.9l31.281,9.281,60.413-9.453a2.564,2.564,0,0,1,.773,5.07L41.713,75.517C41.627,75.6,41.541,75.6,41.369,75.6Z" transform="translate(0 -7.592)"/>
    <path id="路径_12" data-name="路径 12" class="cls-1" d="M30.172,61.867a2.666,2.666,0,0,1-2.578-2.148A2.542,2.542,0,0,1,29.742,56.8l9.453-1.461a2.564,2.564,0,1,1,.773,5.07l-9.453,1.461Zm59.21-1.977a2.379,2.379,0,0,1-.773-.086L73.226,55.25,57.07,57.742a2.605,2.605,0,0,1-2.922-2.148A2.542,2.542,0,0,1,56.3,52.672L73.14,50.094a2.474,2.474,0,0,1,1.117.086l15.9,4.726a2.52,2.52,0,0,1,1.719,3.18A2.578,2.578,0,0,1,89.382,59.891ZM62.913,95.64a1.892,1.892,0,0,1-.687-.086,2.533,2.533,0,0,1-1.8-3.18L64.46,76.992a2.585,2.585,0,0,1,4.984,1.375L65.405,93.75A2.657,2.657,0,0,1,62.913,95.64Z" transform="translate(-2.896 -6.06)"/>
    <path id="路径_13" data-name="路径 13" class="cls-1" d="M76.123,57.1a1.892,1.892,0,0,1-.687-.086,2.533,2.533,0,0,1-1.8-3.18l1.891-7.219L61.17,10.522a2.585,2.585,0,0,1,4.812-1.891L80.592,45.583a2.625,2.625,0,0,1,.086,1.633l-2.062,7.992A2.553,2.553,0,0,1,76.123,57.1Z" transform="translate(-7.598 -0.002)"/>
    <path id="路径_14" data-name="路径 14" class="cls-1" d="M61.186,104.963a2.589,2.589,0,0,1-2.406-1.633L44.171,66.378a2.625,2.625,0,0,1-.086-1.633L58.694,8.886a2.585,2.585,0,0,1,4.984,1.375l-14.351,55L63.592,101.44a2.565,2.565,0,0,1-1.461,3.352A3.655,3.655,0,0,1,61.186,104.963Z" transform="translate(-5.208)"/>
  </g>
</svg>
